<?xml version="1.0" encoding="UTF-8" ?>
<svg version="1.1" width="16" height="16" xmlns="http://www.w3.org/2000/svg" shape-rendering="crispEdges">
<rect x="3" y="1" width="6" height="1" fill="#19182F" />
<rect x="2" y="2" width="1" height="1" fill="#19182F" />
<rect x="3" y="2" width="1" height="1" fill="#7C95C6" />
<rect x="4" y="2" width="1" height="1" fill="#19182F" />
<rect x="9" y="2" width="1" height="2" fill="#19182F" />
<rect x="1" y="3" width="1" height="1" fill="#19182F" />
<rect x="2" y="3" width="1" height="1" fill="#7C95C6" />
<rect x="3" y="3" width="1" height="1" fill="#B3D6EA" />
<rect x="4" y="3" width="1" height="1" fill="#7C95C6" />
<rect x="5" y="3" width="1" height="1" fill="#19182F" />
<rect x="2" y="4" width="1" height="1" fill="#19182F" />
<rect x="3" y="4" width="1" height="1" fill="#7C95C6" />
<rect x="4" y="4" width="1" height="1" fill="#19182F" />
<rect x="8" y="4" width="4" height="1" fill="#E49313" />
<rect x="3" y="5" width="1" height="3" fill="#19182F" />
<rect x="7" y="5" width="1" height="1" fill="#E49313" />
<rect x="8" y="5" width="2" height="1" fill="#FFDA7D" />
<rect x="10" y="5" width="1" height="3" fill="#E1B776" />
<rect x="11" y="5" width="1" height="1" fill="#FFDA7D" />
<rect x="12" y="5" width="1" height="1" fill="#E49313" />
<rect x="6" y="6" width="1" height="4" fill="#E49313" />
<rect x="7" y="6" width="1" height="2" fill="#FFDA7D" />
<rect x="8" y="6" width="2" height="1" fill="#E1B776" />
<rect x="11" y="6" width="2" height="3" fill="#E1B776" />
<rect x="13" y="6" width="1" height="4" fill="#E49313" />
<rect x="8" y="7" width="1" height="2" fill="#E1B776" />
<rect x="9" y="7" width="1" height="2" fill="#CF6900" />
<rect x="4" y="8" width="2" height="1" fill="#19182F" />
<rect x="7" y="8" width="1" height="1" fill="#E1B776" />
<rect x="10" y="8" width="1" height="2" fill="#CF6900" />
<rect x="7" y="9" width="1" height="1" fill="#FFDA7D" />
<rect x="8" y="9" width="1" height="1" fill="#CF6900" />
<rect x="9" y="9" width="1" height="1" fill="#E1B776" />
<rect x="11" y="9" width="1" height="1" fill="#CF6900" />
<rect x="12" y="9" width="1" height="1" fill="#E1B776" />
<rect x="7" y="10" width="2" height="1" fill="#E49313" />
<rect x="9" y="10" width="1" height="1" fill="#CF6900" />
<rect x="10" y="10" width="1" height="1" fill="#E1B776" />
<rect x="11" y="10" width="2" height="1" fill="#E49313" />
<rect x="8" y="11" width="4" height="1" fill="#E49313" />
<rect x="8" y="12" width="2" height="1" fill="#2F0E06" />
<rect x="10" y="12" width="2" height="1" fill="#100002" />
<rect x="9" y="13" width="2" height="1" fill="#76463A" />
<rect x="8" y="14" width="2" height="1" fill="#2F0E06" />
<rect x="10" y="14" width="2" height="1" fill="#100002" />
</svg>