<?xml version="1.0" encoding="UTF-8" ?>
<svg version="1.1" width="16" height="16" xmlns="http://www.w3.org/2000/svg" shape-rendering="crispEdges">
<rect x="4" y="1" width="8" height="1" fill="#19182F" />
<rect x="3" y="2" width="1" height="2" fill="#19182F" />
<rect x="4" y="2" width="8" height="1" fill="#E49313" />
<rect x="12" y="2" width="1" height="2" fill="#19182F" />
<rect x="2" y="3" width="1" height="1" fill="#19182F" />
<rect x="4" y="3" width="8" height="1" fill="#19182F" />
<rect x="13" y="3" width="1" height="1" fill="#19182F" />
<rect x="1" y="4" width="1" height="2" fill="#703998" />
<rect x="14" y="4" width="1" height="2" fill="#703998" />
<rect x="3" y="5" width="10" height="1" fill="#7C95C6" />
<rect x="2" y="6" width="1" height="1" fill="#7C95C6" />
<rect x="13" y="6" width="1" height="1" fill="#7C95C6" />
<rect x="1" y="7" width="1" height="1" fill="#703998" />
<rect x="3" y="7" width="10" height="3" fill="#7C95C6" />
<rect x="14" y="7" width="1" height="1" fill="#703998" />
<rect x="2" y="8" width="1" height="1" fill="#7C95C6" />
<rect x="13" y="8" width="1" height="1" fill="#7C95C6" />
<rect x="1" y="9" width="1" height="1" fill="#703998" />
<rect x="14" y="9" width="1" height="1" fill="#703998" />
<rect x="2" y="10" width="1" height="1" fill="#7C95C6" />
<rect x="13" y="10" width="1" height="1" fill="#7C95C6" />
<rect x="1" y="11" width="1" height="2" fill="#703998" />
<rect x="3" y="11" width="10" height="1" fill="#7C95C6" />
<rect x="14" y="11" width="1" height="2" fill="#703998" />
<rect x="2" y="13" width="12" height="1" fill="#19182F" />
</svg>