<?xml version="1.0" encoding="UTF-8" ?>
<svg version="1.1" width="16" height="16" xmlns="http://www.w3.org/2000/svg" shape-rendering="crispEdges">
<rect x="3" y="1" width="10" height="1" fill="#9AA39B" />
<rect x="2" y="2" width="1" height="1" fill="#9AA39B" />
<rect x="3" y="2" width="10" height="1" fill="#C6D3CB" />
<rect x="13" y="2" width="1" height="1" fill="#9AA39B" />
<rect x="1" y="3" width="1" height="9" fill="#9AA39B" />
<rect x="2" y="3" width="1" height="9" fill="#DCE9E2" />
<rect x="13" y="3" width="1" height="9" fill="#DCE9E2" />
<rect x="14" y="3" width="1" height="9" fill="#9AA39B" />
<rect x="5" y="4" width="1" height="1" fill="#C6D3CB" />
<rect x="6" y="4" width="4" height="1" fill="#DCE9E2" />
<rect x="10" y="4" width="1" height="1" fill="#C6D3CB" />
<rect x="4" y="5" width="1" height="1" fill="#C6D3CB" />
<rect x="5" y="5" width="1" height="1" fill="#DCE9E2" />
<rect x="6" y="5" width="1" height="1" fill="#B7C3BA" />
<rect x="7" y="5" width="2" height="1" fill="#DCE9E2" />
<rect x="9" y="5" width="1" height="1" fill="#B7C3BA" />
<rect x="10" y="5" width="1" height="1" fill="#DCE9E2" />
<rect x="11" y="5" width="1" height="1" fill="#C6D3CB" />
<rect x="3" y="6" width="1" height="1" fill="#C6D3CB" />
<rect x="4" y="6" width="1" height="1" fill="#DCE9E2" />
<rect x="5" y="6" width="1" height="1" fill="#B7C3BA" />
<rect x="6" y="6" width="4" height="3" fill="#9AA39B" />
<rect x="10" y="6" width="1" height="1" fill="#B7C3BA" />
<rect x="11" y="6" width="1" height="1" fill="#DCE9E2" />
<rect x="12" y="6" width="1" height="1" fill="#C6D3CB" />
<rect x="3" y="7" width="1" height="1" fill="#DCE9E2" />
<rect x="4" y="7" width="1" height="1" fill="#B7C3BA" />
<rect x="5" y="7" width="1" height="1" fill="#9AA39B" />
<rect x="10" y="7" width="1" height="1" fill="#9AA39B" />
<rect x="11" y="7" width="1" height="1" fill="#B7C3BA" />
<rect x="12" y="7" width="1" height="1" fill="#DCE9E2" />
<rect x="3" y="8" width="1" height="1" fill="#C6D3CB" />
<rect x="4" y="8" width="1" height="1" fill="#DCE9E2" />
<rect x="5" y="8" width="1" height="1" fill="#B7C3BA" />
<rect x="10" y="8" width="1" height="1" fill="#B7C3BA" />
<rect x="11" y="8" width="1" height="1" fill="#DCE9E2" />
<rect x="12" y="8" width="1" height="1" fill="#C6D3CB" />
<rect x="4" y="9" width="1" height="1" fill="#C6D3CB" />
<rect x="5" y="9" width="1" height="1" fill="#DCE9E2" />
<rect x="6" y="9" width="1" height="1" fill="#B7C3BA" />
<rect x="7" y="9" width="2" height="2" fill="#DCE9E2" />
<rect x="9" y="9" width="1" height="1" fill="#B7C3BA" />
<rect x="10" y="9" width="1" height="1" fill="#DCE9E2" />
<rect x="11" y="9" width="1" height="1" fill="#C6D3CB" />
<rect x="5" y="10" width="1" height="1" fill="#C6D3CB" />
<rect x="6" y="10" width="1" height="1" fill="#DCE9E2" />
<rect x="9" y="10" width="1" height="1" fill="#DCE9E2" />
<rect x="10" y="10" width="1" height="1" fill="#C6D3CB" />
<rect x="2" y="12" width="1" height="1" fill="#9AA39B" />
<rect x="3" y="12" width="10" height="1" fill="#C6D3CB" />
<rect x="13" y="12" width="1" height="1" fill="#9AA39B" />
<rect x="3" y="13" width="10" height="1" fill="#9AA39B" />
</svg>